<svg version="1.1" id="Layer_1" xmlns="http://www.w3.org/2000/svg" xmlns:xlink="http://www.w3.org/1999/xlink" x="0px" y="0px"
	 width="100%" viewBox="0 0 1920 1080" enable-background="new 0 0 1920 1080" xml:space="preserve">
<path fill="#000000" opacity="1.000000" stroke="none" 
	d="
M1403.000000,1081.000000 
	C935.333435,1081.000000 468.166840,1081.000000 1.000188,1081.000000 
	C1.000125,721.000122 1.000125,361.000305 1.000063,1.000333 
	C640.999756,1.000222 1280.999512,1.000222 1920.999512,1.000111 
	C1920.999634,360.999664 1920.999634,720.999329 1920.999756,1080.999512 
	C1748.500000,1081.000000 1576.000000,1081.000000 1403.000000,1081.000000 
M475.964020,864.047913 
	C683.626221,864.026794 891.288452,864.010742 1098.950684,863.981140 
	C1154.279053,863.973267 1209.607300,863.924255 1265.811157,863.992615 
	C1274.052734,863.662231 1282.292236,863.142639 1290.536499,863.048828 
	C1301.128296,862.928345 1312.094727,852.023376 1312.094238,841.368347 
	C1312.084351,641.285767 1312.086548,441.203247 1312.075562,241.120697 
	C1312.075439,239.626740 1312.336548,237.959381 1311.786133,236.666397 
	C1307.483521,226.556091 1298.833984,217.834946 1285.410889,217.906967 
	C1247.594604,218.109909 1209.776611,217.988464 1171.959229,218.007797 
	C1170.298096,218.008652 1168.637085,218.136749 1166.052124,218.055115 
	C1143.689209,218.103653 1121.326172,218.152206 1098.040283,218.056152 
	C1097.540649,218.039001 1097.041016,218.006836 1096.541382,218.006805 
	C889.545776,217.998337 682.550171,217.971008 475.554626,218.046204 
	C464.886475,218.050079 453.037781,229.035202 453.035034,241.489365 
	C452.998413,406.486542 453.003784,571.483704 453.008087,736.480896 
	C453.008148,738.643311 453.129547,740.805786 453.035919,743.897949 
	C453.022766,776.610901 452.929962,809.324341 453.123291,842.036072 
	C453.142029,845.201294 454.435638,848.630737 455.998413,851.462280 
	C460.080566,858.858459 466.648743,862.885254 475.964020,864.047913 
z"/>
<path fill="#C39F71" opacity="1.000000" stroke="none" 
	d="
M453.194336,742.968201 
	C453.129547,740.805786 453.008148,738.643311 453.008087,736.480896 
	C453.003784,571.483704 452.998413,406.486542 453.035034,241.489365 
	C453.037781,229.035202 464.886475,218.050079 475.554626,218.046204 
	C682.550171,217.971008 889.545776,217.998337 1096.541382,218.006805 
	C1097.041016,218.006836 1097.540649,218.039001 1098.608398,218.436798 
	C1105.112915,223.535156 1111.204224,228.072983 1116.945679,233.016953 
	C1123.796997,238.916702 1130.348877,245.164276 1136.558228,251.256699 
	C919.423401,251.246002 702.760864,251.239594 486.098358,251.234039 
	C478.096619,251.233841 478.094940,251.237732 478.094910,259.493469 
	C478.094574,421.823700 478.095276,584.153931 478.088867,746.484192 
	C478.088776,748.982422 478.001587,751.480652 477.601257,753.918945 
	C475.602875,753.129456 473.952728,752.412048 472.314636,751.668091 
	C465.939148,748.772705 459.567444,745.868896 453.194336,742.968201 
z"/>
<path fill="#947855" opacity="1.000000" stroke="none" 
	d="
M1166.975952,218.205566 
	C1168.637085,218.136749 1170.298096,218.008652 1171.959229,218.007797 
	C1209.776611,217.988464 1247.594604,218.109909 1285.410889,217.906967 
	C1298.833984,217.834946 1307.483521,226.556091 1311.786133,236.666397 
	C1312.336548,237.959381 1312.075439,239.626740 1312.075562,241.120697 
	C1312.086548,441.203247 1312.084351,641.285767 1312.094238,841.368347 
	C1312.094727,852.023376 1301.128296,862.928345 1290.536499,863.048828 
	C1282.292236,863.142639 1274.052734,863.662231 1265.055420,863.686035 
	C1262.481323,863.256165 1260.662964,863.025574 1258.844482,863.025146 
	C1196.372925,863.010681 1133.901489,863.031006 1071.429932,863.018860 
	C986.301453,863.002319 901.172913,862.963379 816.379517,862.713867 
	C826.093384,861.363525 835.473938,860.247559 844.850708,859.100464 
	C879.068542,854.914734 912.767517,848.112122 945.933594,838.739990 
	C954.056335,836.444641 961.994080,833.494507 970.315491,830.662231 
	C972.781067,830.513245 974.947998,830.547607 977.566040,830.666382 
	C980.003113,830.785950 981.989075,830.826294 983.975159,830.855103 
	C995.218445,831.018311 1006.461731,831.178711 1017.703918,831.786621 
	C1017.713745,836.228882 1017.726868,840.224609 1017.735107,844.220276 
	C1017.749023,850.988159 1017.747681,850.997314 1024.544434,850.997681 
	C1079.153198,851.000366 1133.761841,850.999268 1188.370605,850.999329 
	C1194.364258,850.999329 1200.371460,850.751221 1206.346924,851.080383 
	C1210.794189,851.325317 1212.734619,850.087036 1212.342041,845.310791 
	C1211.961426,840.681274 1212.277710,835.994446 1212.719727,831.211792 
	C1235.451050,831.012390 1257.751709,830.796326 1280.049561,830.962891 
	C1284.957153,830.999512 1286.177612,829.402039 1286.158203,824.687805 
	C1285.992065,784.572937 1286.075195,744.457153 1286.060059,704.341614 
	C1286.042358,657.235657 1286.001099,610.129761 1285.996338,562.576904 
	C1286.092407,560.048401 1286.162231,557.966675 1286.545654,555.776733 
	C1287.370117,554.848267 1288.095947,554.091797 1288.360962,553.198608 
	C1295.193237,530.170715 1299.180298,506.605560 1299.817749,482.641449 
	C1300.169434,469.417786 1299.581055,456.023254 1297.799927,442.925568 
	C1295.570801,426.533630 1291.713135,410.361084 1288.438599,394.117920 
	C1288.216064,393.013397 1286.990479,392.111084 1286.169312,390.671936 
	C1286.061035,388.145874 1286.014771,386.062592 1285.988770,383.735107 
	C1286.009277,383.490906 1285.999390,383.000916 1286.023926,382.667938 
	C1286.032349,381.890381 1286.016113,381.445801 1286.020264,380.532776 
	C1286.048096,339.083984 1285.973389,298.103210 1286.169434,257.123749 
	C1286.193237,252.140503 1284.509766,250.978851 1279.851685,251.058060 
	C1254.216187,251.493988 1228.576172,251.655029 1202.676025,251.865143 
	C1201.943970,251.596207 1201.473511,251.372543 1200.850830,250.844879 
	C1194.799316,244.803024 1188.929810,239.034180 1182.991821,233.336639 
	C1177.692505,228.251938 1172.317505,223.246124 1166.975952,218.205566 
z"/>
<path fill="#AA8A62" opacity="1.000000" stroke="none" 
	d="
M970.016907,830.845459 
	C961.994080,833.494507 954.056335,836.444641 945.933594,838.739990 
	C912.767517,848.112122 879.068542,854.914734 844.850708,859.100464 
	C835.473938,860.247559 826.093384,861.363525 815.906738,862.740845 
	C703.835266,862.984314 592.571655,862.975769 481.308014,863.015442 
	C479.220337,863.016174 477.132843,863.589294 475.045258,863.895386 
	C466.648743,862.885254 460.080566,858.858459 455.998413,851.462280 
	C454.435638,848.630737 453.142029,845.201294 453.123291,842.036072 
	C452.929962,809.324341 453.022766,776.610901 453.115112,743.433105 
	C459.567444,745.868896 465.939148,748.772705 472.314636,751.668091 
	C473.952728,752.412048 475.602875,753.129456 477.640198,754.262695 
	C478.078644,755.124878 478.124329,755.583374 478.130249,756.505615 
	C478.074707,779.619995 478.116791,802.270874 477.984711,824.920715 
	C477.963440,828.568481 478.707520,830.565186 482.895416,830.366089 
	C486.531647,830.193176 490.198120,830.816833 493.851288,830.817444 
	C652.573181,830.845764 811.295044,830.843811 970.016907,830.845459 
z"/>
<path fill="#A6865F" opacity="1.000000" stroke="none" 
	d="
M1166.514038,218.130341 
	C1172.317505,223.246124 1177.692505,228.251938 1182.991821,233.336639 
	C1188.929810,239.034180 1194.799316,244.803024 1200.381348,250.854645 
	C1182.304077,251.170364 1164.543823,251.147339 1146.784058,251.204910 
	C1144.485596,251.212357 1142.188354,251.636230 1139.588501,251.853745 
	C1138.534424,251.647232 1137.782471,251.454178 1137.030518,251.261139 
	C1130.348877,245.164276 1123.796997,238.916702 1116.945679,233.016953 
	C1111.204224,228.072983 1105.112915,223.535156 1099.069946,218.509094 
	C1121.326172,218.152206 1143.689209,218.103653 1166.514038,218.130341 
z"/>
<path fill="#C39F71" opacity="1.000000" stroke="none" 
	d="
M475.504639,863.971680 
	C477.132843,863.589294 479.220337,863.016174 481.308014,863.015442 
	C592.571655,862.975769 703.835266,862.984314 815.571655,862.960938 
	C901.172913,862.963379 986.301453,863.002319 1071.429932,863.018860 
	C1133.901489,863.031006 1196.372925,863.010681 1258.844482,863.025146 
	C1260.662964,863.025574 1262.481323,863.256165 1264.617676,863.636841 
	C1209.607300,863.924255 1154.279053,863.973267 1098.950684,863.981140 
	C891.288452,864.010742 683.626221,864.026794 475.504639,863.971680 
z"/>
<path fill="#705A3F" opacity="1.000000" stroke="none" 
	d="
M1136.558228,251.256683 
	C1137.782471,251.454178 1138.534424,251.647232 1139.770874,252.151825 
	C1142.826904,255.266586 1145.398438,258.069794 1147.505127,260.911804 
	C1144.207397,260.965942 1141.374268,260.994659 1138.541260,260.994690 
	C925.552429,260.996765 712.563660,260.996460 499.574829,260.997040 
	C491.913513,260.997070 491.909027,261.000275 491.908997,268.488922 
	C491.908142,429.813751 491.909180,591.138611 491.900665,752.463440 
	C491.900543,754.960571 491.785583,757.457703 491.365112,759.938843 
	C486.727325,758.629150 482.448669,757.335449 478.170044,756.041809 
	C478.124329,755.583374 478.078644,755.124878 477.993988,754.322632 
	C478.001587,751.480652 478.088776,748.982422 478.088867,746.484192 
	C478.095276,584.153931 478.094574,421.823700 478.094910,259.493469 
	C478.094940,251.237732 478.096619,251.233841 486.098358,251.234039 
	C702.760864,251.239594 919.423401,251.246002 1136.558228,251.256683 
z"/>
<path fill="#3B2D1F" opacity="1.000000" stroke="none" 
	d="
M1212.287964,831.332825 
	C1212.277710,835.994446 1211.961426,840.681274 1212.342041,845.310791 
	C1212.734619,850.087036 1210.794189,851.325317 1206.346924,851.080383 
	C1200.371460,850.751221 1194.364258,850.999329 1188.370605,850.999329 
	C1133.761841,850.999268 1079.153198,851.000366 1024.544434,850.997681 
	C1017.747681,850.997314 1017.749023,850.988159 1017.735107,844.220276 
	C1017.726868,840.224609 1017.713745,836.228882 1017.779053,831.314453 
	C1017.561890,827.257141 1017.268616,824.118652 1016.990479,820.533020 
	C1017.015015,817.400635 1017.024353,814.715393 1017.253174,811.705444 
	C1019.157532,810.925476 1020.839417,810.088440 1022.527710,810.075378 
	C1035.794189,809.972656 1049.061768,810.027527 1062.426025,810.019226 
	C1062.523071,810.004517 1062.717773,810.028381 1063.209961,810.018860 
	C1075.780884,809.996582 1087.859497,809.983826 1100.410645,809.979858 
	C1136.145874,809.992432 1171.408813,809.980286 1206.671509,810.039978 
	C1208.765381,810.043518 1210.858032,810.623535 1212.949829,811.279358 
	C1212.960693,812.081848 1212.973022,812.540344 1212.977905,813.442017 
	C1212.983765,816.242859 1212.996826,818.600464 1212.779297,821.296692 
	C1212.461670,824.867798 1212.374756,828.100281 1212.287964,831.332825 
z"/>
<path fill="#614F37" opacity="1.000000" stroke="none" 
	d="
M478.130249,756.505615 
	C482.448669,757.335449 486.727325,758.629150 491.450989,760.198120 
	C491.937408,760.650391 491.978790,760.827271 491.988098,761.471497 
	C491.945312,779.102661 491.931580,796.266418 491.925232,813.430237 
	C491.922455,820.973328 491.929291,820.976990 499.569336,820.977051 
	C662.876221,820.977905 826.183105,820.977173 989.489990,820.981995 
	C992.655334,820.982117 995.820740,821.044189 998.731934,821.317139 
	C994.648010,822.987549 990.769104,824.301514 987.002991,825.883789 
	C983.642273,827.295837 980.406128,829.004333 977.114990,830.581909 
	C974.947998,830.547607 972.781067,830.513245 970.315491,830.662231 
	C811.295044,830.843811 652.573181,830.845764 493.851288,830.817444 
	C490.198120,830.816833 486.531647,830.193176 482.895416,830.366089 
	C478.707520,830.565186 477.963440,828.568481 477.984711,824.920715 
	C478.116791,802.270874 478.074707,779.619995 478.130249,756.505615 
z"/>
<path fill="#594630" opacity="1.000000" stroke="none" 
	d="
M1212.719604,831.211792 
	C1212.374756,828.100281 1212.461670,824.867798 1213.247070,821.303955 
	C1231.934692,820.974915 1249.924561,820.885193 1267.912231,821.051453 
	C1271.844971,821.087769 1273.089600,819.797363 1273.068237,815.882080 
	C1272.931396,790.731384 1273.011353,765.579590 1272.997437,740.428162 
	C1272.971069,692.624512 1272.929688,644.820801 1272.927612,596.613892 
	C1273.010010,595.133606 1273.059570,594.056641 1273.341309,592.726868 
	C1275.092285,589.018005 1276.662231,585.583435 1278.118286,582.101257 
	C1280.771240,575.757019 1283.356567,569.384521 1285.969971,563.023804 
	C1286.001099,610.129761 1286.042358,657.235657 1286.060059,704.341614 
	C1286.075195,744.457153 1285.992065,784.572937 1286.158203,824.687805 
	C1286.177612,829.402039 1284.957153,830.999512 1280.049561,830.962891 
	C1257.751709,830.796326 1235.451050,831.012390 1212.719604,831.211792 
z"/>
<path fill="#614F37" opacity="1.000000" stroke="none" 
	d="
M1285.996338,562.576904 
	C1283.356567,569.384521 1280.771240,575.757019 1278.118286,582.101257 
	C1276.662231,585.583435 1275.092285,589.018005 1273.306396,592.261169 
	C1273.024414,545.140564 1272.992310,498.232819 1273.001099,451.325073 
	C1273.007324,418.889771 1273.069946,386.454498 1273.339722,354.268646 
	C1276.436768,361.349335 1279.213745,368.219421 1282.217041,374.989136 
	C1283.167236,377.131012 1284.721924,379.004761 1286.000000,381.001221 
	C1286.016113,381.445801 1286.032349,381.890381 1285.916260,382.772217 
	C1285.632324,383.504425 1285.693848,383.761017 1285.968384,383.979279 
	C1286.014771,386.062592 1286.061035,388.145874 1286.129150,391.127930 
	C1286.135498,402.850739 1286.100220,413.674866 1286.108643,424.498901 
	C1286.142456,468.294281 1286.189819,512.089661 1286.232178,555.885010 
	C1286.162231,557.966675 1286.092407,560.048401 1285.996338,562.576904 
z"/>
<path fill="#594630" opacity="1.000000" stroke="none" 
	d="
M1286.020264,380.532806 
	C1284.721924,379.004761 1283.167236,377.131012 1282.217041,374.989136 
	C1279.213745,368.219421 1276.436768,361.349335 1273.304199,353.865387 
	C1272.988892,352.135986 1272.941650,351.059326 1272.926147,349.516663 
	C1272.971802,321.571289 1272.900879,294.091278 1273.086304,266.613037 
	C1273.115723,262.265778 1271.890991,260.858582 1267.449341,260.903290 
	C1248.299805,261.096100 1229.146851,260.941956 1209.927246,260.583862 
	C1207.552246,257.472504 1205.244873,254.691437 1202.937622,251.910385 
	C1228.576172,251.655029 1254.216187,251.493988 1279.851685,251.058060 
	C1284.509766,250.978851 1286.193237,252.140503 1286.169434,257.123749 
	C1285.973389,298.103210 1286.048096,339.083984 1286.020264,380.532806 
z"/>
<path fill="#AA8A62" opacity="1.000000" stroke="none" 
	d="
M1286.545654,555.776733 
	C1286.189819,512.089661 1286.142456,468.294281 1286.108643,424.498901 
	C1286.100220,413.674866 1286.135498,402.850739 1286.190918,391.570679 
	C1286.990479,392.111084 1288.216064,393.013397 1288.438599,394.117920 
	C1291.713135,410.361084 1295.570801,426.533630 1297.799927,442.925568 
	C1299.581055,456.023254 1300.169434,469.417786 1299.817749,482.641449 
	C1299.180298,506.605560 1295.193237,530.170715 1288.360962,553.198608 
	C1288.095947,554.091797 1287.370117,554.848267 1286.545654,555.776733 
z"/>
<path fill="#614F37" opacity="1.000000" stroke="none" 
	d="
M1202.676025,251.865112 
	C1205.244873,254.691437 1207.552246,257.472504 1209.459839,260.615845 
	C1189.067749,261.029663 1169.075195,261.081207 1148.803711,261.071747 
	C1148.339722,260.964813 1148.154907,260.918915 1147.969971,260.872986 
	C1145.398438,258.069794 1142.826904,255.266586 1140.072998,252.165283 
	C1142.188354,251.636230 1144.485596,251.212357 1146.784058,251.204910 
	C1164.543823,251.147339 1182.304077,251.170364 1200.533447,251.158630 
	C1201.473511,251.372543 1201.943970,251.596207 1202.676025,251.865112 
z"/>
<path fill="#594630" opacity="1.000000" stroke="none" 
	d="
M977.566040,830.666443 
	C980.406128,829.004333 983.642273,827.295837 987.002991,825.883789 
	C990.769104,824.301514 994.648010,822.987549 999.200439,821.284668 
	C1005.607178,821.001648 1011.291260,820.990906 1016.975342,820.980164 
	C1017.268616,824.118652 1017.561890,827.257141 1017.780151,830.867859 
	C1006.461731,831.178711 995.218445,831.018311 983.975159,830.855103 
	C981.989075,830.826294 980.003113,830.785950 977.566040,830.666443 
z"/>
<path fill="#594630" opacity="1.000000" stroke="none" 
	d="
M1285.988770,383.735107 
	C1285.693848,383.761017 1285.632324,383.504425 1285.891602,383.105225 
	C1285.999390,383.000916 1286.009277,383.490906 1285.988770,383.735107 
z"/>
<path fill="#19522E" opacity="1.000000" stroke="none" 
	d="
M1147.505127,260.911804 
	C1148.154907,260.918915 1148.339722,260.964813 1148.967407,261.342224 
	C1151.629761,264.413361 1153.849243,267.152985 1155.594238,269.924255 
	C1152.619873,269.969391 1150.120239,269.994629 1147.620605,269.994629 
	C936.307983,269.996460 724.995361,269.996338 513.682739,269.996429 
	C512.182861,269.996429 510.669495,270.127350 509.185852,269.972595 
	C505.333160,269.570770 503.534668,271.073181 503.975403,275.066925 
	C504.138916,276.548645 504.000153,278.063690 504.000031,279.563538 
	C503.988708,441.380890 503.977509,603.198242 503.591583,764.992554 
	C499.484650,763.647705 495.752411,762.325928 492.020172,761.004150 
	C491.978790,760.827271 491.937408,760.650391 491.810150,760.214172 
	C491.785583,757.457703 491.900543,754.960571 491.900665,752.463440 
	C491.909180,591.138611 491.908142,429.813751 491.908997,268.488922 
	C491.909027,261.000275 491.913513,260.997070 499.574829,260.997040 
	C712.563660,260.996460 925.552429,260.996765 1138.541260,260.994690 
	C1141.374268,260.994659 1144.207397,260.965942 1147.505127,260.911804 
z"/>
<path fill="#1C5B33" opacity="1.000000" stroke="none" 
	d="
M1062.329102,810.033936 
	C1049.061768,810.027527 1035.794189,809.972656 1022.527710,810.075378 
	C1020.839417,810.088440 1019.157532,810.925476 1016.780884,811.698059 
	C1014.589417,812.012634 1013.089844,812.007507 1011.590210,812.007507 
	C844.633850,812.006836 677.677551,812.007263 510.721222,812.003845 
	C504.023376,812.003723 504.005768,811.987488 504.003845,805.472961 
	C504.000000,792.309753 504.017273,779.146606 504.391205,766.055542 
	C525.939697,773.104309 546.935364,780.731445 568.350403,786.903503 
	C599.710938,795.941956 631.786987,801.829956 664.278503,805.045044 
	C684.747742,807.070496 705.270142,809.360657 725.801880,809.741638 
	C749.714539,810.185303 773.699463,809.269348 797.585144,807.822510 
	C816.442322,806.680237 835.371765,804.824707 853.954163,801.516846 
	C879.303650,797.004395 904.529968,791.504333 929.488647,785.166016 
	C961.834839,776.951599 992.982178,764.959473 1022.946655,750.341431 
	C1054.992310,734.708008 1085.619263,716.586975 1113.650513,694.291138 
	C1137.682983,675.175781 1159.682373,654.104919 1178.631958,629.882385 
	C1203.998047,597.457886 1222.685303,561.667542 1232.499634,521.602112 
	C1237.964355,499.293182 1241.335938,476.594452 1238.964233,453.497040 
	C1237.406616,438.327911 1236.238892,423.036469 1233.319092,408.108368 
	C1228.696777,384.476715 1219.910767,362.196075 1208.526978,340.911499 
	C1197.650269,320.574890 1184.841187,301.638458 1169.778198,284.180420 
	C1165.908936,279.696014 1162.571289,274.753113 1159.458740,270.007263 
	C1179.619141,269.994385 1199.310181,269.995117 1219.169556,270.283356 
	C1230.934326,286.436707 1242.518921,302.311340 1254.138062,318.160706 
	C1256.341309,321.166168 1258.681641,324.071228 1260.963867,327.448730 
	C1260.989380,329.578857 1261.009766,331.282837 1261.021729,333.456238 
	C1261.017944,427.620850 1261.022583,521.316040 1261.021606,615.425293 
	C1260.997192,617.217529 1260.978516,618.595703 1260.636719,620.075073 
	C1255.501099,627.516724 1250.871338,634.984924 1245.842773,642.174255 
	C1227.977051,667.717163 1207.808838,691.194824 1184.569580,712.112854 
	C1163.508423,731.070435 1141.248535,748.320190 1117.337646,763.490845 
	C1115.024170,764.958679 1113.108643,767.053772 1110.634277,768.923584 
	C1107.980225,768.725464 1106.355713,769.346436 1105.814209,772.001587 
	C1103.532349,772.320984 1101.658936,772.619446 1099.928345,772.608887 
	C1102.481201,769.785767 1105.139160,767.461304 1107.240112,764.711060 
	C1110.013794,761.080200 1109.265747,756.487244 1105.889038,753.541199 
	C1103.096680,751.105042 1097.832886,751.079468 1094.973389,753.915344 
	C1082.244751,766.538452 1069.629883,779.276367 1056.509766,792.037354 
	C1054.551147,792.145386 1053.056763,792.222839 1051.562012,792.226318 
	C1043.914062,792.244141 1036.262085,792.094116 1028.619263,792.295105 
	C1022.489929,792.456177 1018.895447,795.836914 1018.996399,800.789551 
	C1019.095520,805.648560 1023.038574,808.905884 1028.960571,808.943726 
	C1030.952393,808.956421 1032.945435,808.807190 1035.403809,808.814941 
	C1041.324829,808.920837 1046.783936,808.823181 1052.233276,809.011292 
	C1055.606323,809.127686 1058.964355,809.678284 1062.329102,810.033936 
z"/>
<path fill="#184F2C" opacity="1.000000" stroke="none" 
	d="
M1111.008301,768.857727 
	C1113.108643,767.053772 1115.024170,764.958679 1117.337646,763.490845 
	C1141.248535,748.320190 1163.508423,731.070435 1184.569580,712.112854 
	C1207.808838,691.194824 1227.977051,667.717163 1245.842773,642.174255 
	C1250.871338,634.984924 1255.501099,627.516724 1260.649658,620.546570 
	C1260.990356,682.633423 1260.998047,744.350037 1260.995605,806.066711 
	C1260.995239,812.830933 1260.830078,812.982056 1253.907959,812.989136 
	C1240.267090,813.003174 1226.626221,812.996765 1212.985352,812.998840 
	C1212.973022,812.540344 1212.960693,812.081848 1213.338623,811.242249 
	C1221.837891,808.522888 1217.110107,801.993958 1217.813477,797.436157 
	C1218.570435,792.530762 1213.733643,794.576660 1211.355835,793.130127 
	C1211.362793,784.918030 1211.362793,777.146118 1211.362793,769.014587 
	C1208.762695,769.014587 1206.784424,769.017456 1204.806152,769.014160 
	C1173.540161,768.962463 1142.274292,768.910034 1111.008301,768.857727 
z"/>
<path fill="#174928" opacity="1.000000" stroke="none" 
	d="
M504.025848,765.983398 
	C504.017273,779.146606 504.000000,792.309753 504.003845,805.472961 
	C504.005768,811.987488 504.023376,812.003723 510.721222,812.003845 
	C677.677551,812.007263 844.633850,812.006836 1011.590210,812.007507 
	C1013.089844,812.007507 1014.589417,812.012634 1016.561340,812.022705 
	C1017.024353,814.715393 1017.015015,817.400635 1016.990479,820.533020 
	C1011.291260,820.990906 1005.607178,821.001648 999.454590,821.044922 
	C995.820740,821.044189 992.655334,820.982117 989.489990,820.981995 
	C826.183105,820.977173 662.876221,820.977905 499.569336,820.977051 
	C491.929291,820.976990 491.922455,820.973328 491.925232,813.430237 
	C491.931580,796.266418 491.945312,779.102661 491.988098,761.471497 
	C495.752411,762.325928 499.484650,763.647705 503.606873,765.234436 
	C503.996857,765.499390 504.025848,765.983398 504.025848,765.983398 
z"/>
<path fill="#133F22" opacity="1.000000" stroke="none" 
	d="
M1212.978027,813.442017 
	C1226.626221,812.996765 1240.267090,813.003174 1253.907959,812.989136 
	C1260.830078,812.982056 1260.995239,812.830933 1260.995605,806.066711 
	C1260.998047,744.350037 1260.990356,682.633423 1260.972656,620.445312 
	C1260.978516,618.595703 1260.997192,617.217529 1261.346191,615.324463 
	C1262.768433,613.238037 1263.931885,611.710632 1264.939209,610.086426 
	C1267.626953,605.752258 1270.247437,601.376465 1272.894653,597.017151 
	C1272.929688,644.820801 1272.971069,692.624512 1272.997437,740.428162 
	C1273.011353,765.579590 1272.931396,790.731384 1273.068237,815.882080 
	C1273.089600,819.797363 1271.844971,821.087769 1267.912231,821.051453 
	C1249.924561,820.885193 1231.934692,820.974915 1213.477783,820.965454 
	C1212.996826,818.600464 1212.983765,816.242859 1212.978027,813.442017 
z"/>
<path fill="#241A11" opacity="1.000000" stroke="none" 
	d="
M1211.348877,793.570251 
	C1213.733643,794.576660 1218.570435,792.530762 1217.813477,797.436157 
	C1217.110107,801.993958 1221.837891,808.522888 1213.340088,810.898254 
	C1210.858032,810.623535 1208.765381,810.043518 1206.671509,810.039978 
	C1171.408813,809.980286 1136.145874,809.992432 1100.422119,809.515747 
	C1099.965332,806.437317 1100.269287,803.789673 1099.911133,801.234924 
	C1099.164917,795.912109 1101.036255,793.212646 1107.025757,793.674561 
	C1131.261475,793.795593 1155.079102,793.850037 1178.896729,793.829163 
	C1189.714111,793.819641 1200.531494,793.661133 1211.348877,793.570251 
z"/>
<path fill="#B85D67" opacity="1.000000" stroke="none" 
	d="
M1062.426025,810.019226 
	C1058.964355,809.678284 1055.606323,809.127686 1052.233276,809.011292 
	C1046.783936,808.823181 1041.324829,808.920837 1035.526123,808.504272 
	C1036.999146,807.059143 1038.761719,805.897522 1040.641479,804.974792 
	C1049.047607,800.848572 1057.487061,796.790405 1066.326416,792.593018 
	C1067.871094,792.471619 1069.004150,792.464905 1070.471191,792.605347 
	C1073.492065,792.632996 1076.178955,792.513550 1079.154785,792.278198 
	C1079.849854,792.096436 1080.255981,792.030518 1081.117065,792.041138 
	C1089.627563,792.298645 1089.627563,792.298645 1089.647461,798.604187 
	C1089.680298,808.984924 1089.678589,808.870789 1079.220703,809.031433 
	C1073.715942,809.115967 1068.218506,809.680542 1062.717773,810.028381 
	C1062.717773,810.028381 1062.523071,810.004517 1062.426025,810.019226 
z"/>
<path fill="#184F2C" opacity="1.000000" stroke="none" 
	d="
M1063.209961,810.018860 
	C1068.218506,809.680542 1073.715942,809.115967 1079.220703,809.031433 
	C1089.678589,808.870789 1089.680298,808.984924 1089.647461,798.604187 
	C1089.627563,792.298645 1089.627563,792.298645 1081.272095,791.730835 
	C1087.243286,785.201965 1093.514526,779.059937 1099.785645,772.917969 
	C1101.658936,772.619446 1103.532349,772.320984 1105.906860,772.464111 
	C1106.474609,779.796204 1106.541016,786.686707 1106.607666,793.577148 
	C1101.036255,793.212646 1099.164917,795.912109 1099.911133,801.234924 
	C1100.269287,803.789673 1099.965332,806.437317 1099.949707,809.506958 
	C1087.859497,809.983826 1075.780884,809.996582 1063.209961,810.018860 
z"/>
<path fill="#174928" opacity="1.000000" stroke="none" 
	d="
M1272.927612,596.613892 
	C1270.247437,601.376465 1267.626953,605.752258 1264.939209,610.086426 
	C1263.931885,611.710632 1262.768433,613.238037 1261.351807,614.910400 
	C1261.022583,521.316040 1261.017944,427.620850 1261.358643,333.532684 
	C1263.861572,336.545990 1265.974243,339.981750 1268.192139,343.348297 
	C1269.682617,345.610443 1271.321777,347.774597 1272.894287,349.982635 
	C1272.941650,351.059326 1272.988892,352.135986 1273.071777,353.615936 
	C1273.069946,386.454498 1273.007324,418.889771 1273.001099,451.325073 
	C1272.992310,498.232819 1273.024414,545.140564 1273.073975,592.513977 
	C1273.059570,594.056641 1273.010010,595.133606 1272.927612,596.613892 
z"/>
<path fill="#133F22" opacity="1.000000" stroke="none" 
	d="
M1272.926147,349.516663 
	C1271.321777,347.774597 1269.682617,345.610443 1268.192139,343.348297 
	C1265.974243,339.981750 1263.861572,336.545990 1261.367065,333.063293 
	C1261.009766,331.282837 1260.989380,329.578857 1260.976929,326.977844 
	C1260.989746,309.277527 1260.875488,292.472778 1261.081909,275.671936 
	C1261.134644,271.367737 1259.894409,269.806427 1255.434326,269.902130 
	C1243.294922,270.162689 1231.146362,269.994293 1219.001343,269.995850 
	C1199.310181,269.995117 1179.619141,269.994385 1159.093140,269.993622 
	C1157.528442,269.959930 1156.798706,269.926239 1156.068848,269.892578 
	C1153.849243,267.152985 1151.629761,264.413361 1149.246582,261.403259 
	C1169.075195,261.081207 1189.067749,261.029663 1209.527588,260.946106 
	C1229.146851,260.941956 1248.299805,261.096100 1267.449341,260.903290 
	C1271.890991,260.858582 1273.115723,262.265778 1273.086304,266.613037 
	C1272.900879,294.091278 1272.971802,321.571289 1272.926147,349.516663 
z"/>
<path fill="#20683C" opacity="1.000000" stroke="none" 
	d="
M1155.594238,269.924255 
	C1156.798706,269.926239 1157.528442,269.959930 1158.623901,270.007263 
	C1162.571289,274.753113 1165.908936,279.696014 1169.778198,284.180420 
	C1184.841187,301.638458 1197.650269,320.574890 1208.526978,340.911499 
	C1219.910767,362.196075 1228.696777,384.476715 1233.319092,408.108368 
	C1236.238892,423.036469 1237.406616,438.327911 1238.964233,453.497040 
	C1241.335938,476.594452 1237.964355,499.293182 1232.499634,521.602112 
	C1222.685303,561.667542 1203.998047,597.457886 1178.631958,629.882385 
	C1159.682373,654.104919 1137.682983,675.175781 1113.650513,694.291138 
	C1085.619263,716.586975 1054.992310,734.708008 1022.946655,750.341431 
	C992.982178,764.959473 961.834839,776.951599 929.488647,785.166016 
	C904.529968,791.504333 879.303650,797.004395 853.954163,801.516846 
	C835.371765,804.824707 816.442322,806.680237 797.585144,807.822510 
	C773.699463,809.269348 749.714539,810.185303 725.801880,809.741638 
	C705.270142,809.360657 684.747742,807.070496 664.278503,805.045044 
	C631.786987,801.829956 599.710938,795.941956 568.350403,786.903503 
	C546.935364,780.731445 525.939697,773.104309 504.391205,766.055542 
	C504.025848,765.983398 503.996857,765.499390 503.981567,765.257507 
	C503.977509,603.198242 503.988708,441.380890 504.000031,279.563538 
	C504.000153,278.063690 504.138916,276.548645 503.975403,275.066925 
	C503.534668,271.073181 505.333160,269.570770 509.185852,269.972595 
	C510.669495,270.127350 512.182861,269.996429 513.682739,269.996429 
	C724.995361,269.996338 936.307983,269.996460 1147.620605,269.994629 
	C1150.120239,269.994629 1152.619873,269.969391 1155.594238,269.924255 
M933.073242,672.240173 
	C932.639282,670.523438 932.205261,668.806641 932.269531,666.463379 
	C934.046265,663.157532 932.504517,661.958740 929.315491,661.855286 
	C926.215332,661.754639 923.113770,661.696655 920.540039,661.150330 
	C920.347351,659.413696 920.154663,657.677063 920.296326,655.247559 
	C920.767700,650.859253 921.239136,646.470886 921.861145,641.246521 
	C921.272278,639.622498 920.683411,637.998474 920.585022,635.868347 
	C922.380127,631.422363 921.526245,630.158508 916.325256,630.149170 
	C894.234192,630.109558 872.143005,630.142822 849.165283,630.044434 
	C838.836914,630.129456 835.601990,632.059326 834.408691,640.102051 
	C833.787659,644.287476 833.908081,648.772705 834.694275,652.933411 
	C835.915283,659.394775 838.642700,661.343384 844.824951,662.633362 
	C837.556274,668.818054 837.782959,679.736877 844.653748,687.215027 
	C842.592651,689.663147 839.036011,691.949524 838.750305,694.589783 
	C837.886841,702.571167 837.543396,710.773926 838.435120,718.729187 
	C839.181396,725.387207 842.353699,727.006409 849.257019,726.991943 
	C851.918518,726.986389 854.579712,726.863220 858.143066,726.896667 
	C880.541626,726.932617 902.940308,727.004150 925.338745,726.976929 
	C930.335999,726.970886 931.120178,725.311951 928.897339,720.236328 
	C929.237061,713.163208 929.576782,706.090027 930.009521,698.223145 
	C929.559631,696.207703 929.109680,694.192261 929.332886,691.836914 
	C929.099365,690.346191 928.865845,688.855408 929.516418,687.211975 
	C933.480286,686.228638 935.018311,684.645752 931.551758,681.134094 
	C932.016785,678.427063 932.481750,675.719971 933.073242,672.240173 
M668.160645,403.499939 
	C668.160645,412.584167 668.160645,421.668365 668.160645,430.873444 
	C676.297485,430.873444 683.796082,431.299438 691.228516,430.779449 
	C704.297913,429.865082 712.522217,422.997650 713.621582,412.152039 
	C714.705688,401.458282 709.782104,393.974976 699.892822,389.718597 
	C711.496643,379.730530 707.961365,359.245575 693.404968,355.880890 
	C685.351624,354.019318 676.857178,354.065979 668.160645,353.213135 
	C668.160645,370.605042 668.160645,386.552490 668.160645,403.499939 
M656.256470,575.059753 
	C662.761780,574.084045 669.526611,573.918152 675.709351,571.936279 
	C684.233459,569.204041 684.764648,567.246887 683.015442,558.343323 
	C662.945374,570.539551 648.894897,569.988342 637.144592,556.543640 
	C626.628601,544.511353 626.236572,527.577942 636.191345,515.362305 
	C647.840759,501.066956 661.801331,500.228607 683.094482,512.545654 
	C684.607544,503.315399 683.948181,502.127991 675.800720,498.699646 
	C668.029053,495.429474 659.992249,494.710876 651.850830,496.605896 
	C633.081116,500.974854 619.867249,517.762268 620.310425,536.357422 
	C620.780701,556.089966 634.724487,571.442749 656.256470,575.059753 
M1004.219910,354.680389 
	C982.022400,362.772400 970.934631,386.036560 979.263489,407.043274 
	C987.467712,427.735687 1011.789612,437.861359 1032.187744,429.076447 
	C1040.331421,425.569214 1041.012451,424.245148 1039.276978,415.292877 
	C1020.011597,427.222534 1006.257141,427.037811 994.406372,414.690277 
	C983.619263,403.451050 982.154541,387.141754 990.969849,374.430573 
	C996.570007,366.355530 1004.219849,361.545532 1014.185669,360.739258 
	C1023.981140,359.946747 1032.086670,364.049255 1039.715454,370.270782 
	C1040.233887,359.056366 1040.213379,359.043213 1031.813843,355.602600 
	C1023.002258,351.993164 1014.041870,351.788544 1004.219910,354.680389 
M1058.800903,383.600342 
	C1063.678345,386.686615 1068.475342,389.910919 1073.460815,392.811554 
	C1076.892090,394.807983 1081.021729,395.818665 1084.028442,398.265900 
	C1086.659302,400.407043 1089.155151,403.689301 1089.957397,406.904938 
	C1091.785156,414.229523 1087.139648,421.122070 1079.804932,423.544373 
	C1072.259399,426.036316 1064.453247,422.691895 1060.976196,415.409058 
	C1060.205200,413.794098 1059.665894,412.068451 1058.915527,410.122864 
	C1056.133667,410.926788 1053.546997,411.674316 1050.993408,412.412292 
	C1054.552124,426.722809 1065.046509,433.888763 1078.936035,431.994476 
	C1088.661255,430.668182 1096.882812,422.690460 1098.765137,412.753540 
	C1100.548584,403.339050 1096.772705,395.607513 1087.589233,390.356384 
	C1084.572632,388.631470 1081.292725,387.372345 1078.168213,385.829285 
	C1075.046387,384.287567 1071.858276,382.836700 1068.897583,381.022278 
	C1064.684692,378.440460 1062.616699,374.737549 1063.889404,369.614777 
	C1065.056763,364.916473 1069.084595,361.527344 1074.198486,360.819763 
	C1081.162476,359.856201 1086.031250,362.953979 1089.507202,368.880890 
	C1091.907837,367.347778 1093.985962,366.020569 1096.940918,364.133453 
	C1093.721558,361.083252 1091.206909,357.927307 1088.003906,355.816193 
	C1079.526978,350.229126 1067.072510,351.956696 1059.986938,359.246429 
	C1053.759766,365.653046 1053.111084,374.876404 1058.800903,383.600342 
M881.722168,382.951965 
	C879.214539,382.533508 877.876770,383.569580 876.913513,385.983490 
	C874.637756,391.686310 872.047852,397.264435 869.557251,402.880646 
	C867.868225,406.689331 866.132141,410.477142 863.997009,415.204285 
	C858.827026,402.851685 854.133423,391.637268 849.001831,379.376404 
	C843.848938,391.746124 839.155396,403.013153 834.053650,415.260132 
	C828.984375,403.734619 824.448181,393.421051 820.008789,383.327576 
	C816.849060,383.327576 813.999634,383.327576 810.716858,383.327576 
	C818.531677,400.332825 826.122253,416.850067 834.150085,434.318817 
	C839.251038,422.127991 843.914368,410.982910 849.005676,398.815063 
	C854.134094,411.073883 858.784668,422.190369 863.862671,434.328705 
	C872.040100,416.665283 879.682068,400.158386 887.540466,383.184021 
	C885.460693,383.086487 884.024048,383.019135 881.722168,382.951965 
M1002.067383,503.442719 
	C992.018005,493.884399 979.578308,497.972412 967.787842,496.778320 
	C967.787842,522.883179 967.787842,548.301025 967.787842,573.704407 
	C970.643066,573.704407 973.223511,573.704407 976.200073,573.704407 
	C976.200073,562.487671 976.200073,551.567322 976.200073,540.263489 
	C986.497681,540.130798 996.843140,540.998718 1003.826233,531.669922 
	C1009.832031,523.646912 1009.347595,512.805908 1002.067383,503.442719 
M889.552612,527.938354 
	C879.279541,535.032410 877.316345,545.289490 879.148682,556.633240 
	C880.739075,566.478699 888.928711,573.990967 898.316772,575.041687 
	C909.965942,576.345520 919.546326,571.329712 923.732178,561.548340 
	C921.641724,560.387512 919.529358,559.214539 917.469727,558.070801 
	C910.357056,567.024292 904.462036,569.483948 897.004822,566.795105 
	C890.931274,564.605164 887.110535,558.793823 887.420715,551.739502 
	C899.652100,551.739502 911.911499,551.739502 924.661194,551.739502 
	C924.691528,542.425781 922.716370,534.399414 915.186096,528.951965 
	C907.303528,523.249512 898.784363,523.354492 889.552612,527.938354 
M1038.003296,547.737305 
	C1037.998291,549.069153 1037.909912,550.406677 1038.001465,551.731873 
	C1038.669312,561.397034 1042.669189,569.249939 1051.717651,573.286072 
	C1060.306152,577.117126 1068.612915,575.973206 1075.782959,569.374695 
	C1076.158203,569.029358 1076.760132,568.930603 1077.469604,568.625366 
	C1077.718872,570.643555 1077.915039,572.231873 1078.100220,573.730835 
	C1080.789307,573.730835 1083.210083,573.730835 1085.677734,573.730835 
	C1085.677734,557.711060 1085.677734,541.976440 1085.677734,526.178955 
	C1082.970093,526.178955 1080.543335,526.178955 1078.140503,526.178955 
	C1077.825562,528.067810 1077.548462,529.729980 1077.413696,530.537903 
	C1072.701172,528.584534 1068.350464,525.710693 1063.686401,525.050293 
	C1050.148560,523.133362 1040.547607,531.661987 1038.003296,547.737305 
M791.618835,383.779388 
	C780.632568,379.662445 769.992859,381.890961 762.856812,389.803650 
	C755.721375,397.715607 754.195740,409.051392 758.985107,418.570892 
	C763.768127,428.077881 773.260010,433.085693 784.592468,432.080994 
	C794.885803,431.168427 803.838684,423.106110 806.055603,412.752930 
	C808.614075,400.804382 803.714294,390.560883 791.618835,383.779388 
M711.490112,574.146729 
	C722.992004,577.236450 733.937439,573.386780 740.024597,564.110779 
	C746.027893,554.962585 745.502136,542.779602 738.734619,534.218994 
	C732.010315,525.713013 720.626038,522.444763 710.402527,526.085144 
	C700.811279,529.500366 694.169434,538.663269 693.851929,548.917664 
	C693.489136,560.640259 699.140625,569.031128 711.490112,574.146729 
M1119.497559,524.987366 
	C1116.080933,526.748657 1112.664307,528.509949 1109.268555,530.260376 
	C1109.142456,528.922119 1109.010010,527.517456 1108.893921,526.286621 
	C1106.030029,526.286621 1103.623413,526.286621 1101.316772,526.286621 
	C1101.316772,542.350708 1101.316772,558.086487 1101.316772,573.693359 
	C1104.065186,573.693359 1106.476807,573.693359 1109.133667,573.693359 
	C1109.133667,566.905945 1108.970337,560.424072 1109.188965,553.955139 
	C1109.345459,549.322815 1109.532471,544.596191 1110.572021,540.112488 
	C1111.948364,534.176941 1116.647095,531.480225 1122.676392,532.244202 
	C1128.069824,532.927551 1130.569336,535.863525 1131.013428,542.262268 
	C1131.197632,544.917175 1131.170898,547.589172 1131.177490,550.253479 
	C1131.196655,558.039001 1131.184326,565.824524 1131.184326,573.803650 
	C1134.134277,573.803650 1136.569946,573.803650 1139.222534,573.803650 
	C1139.222534,562.844116 1139.600830,552.029724 1139.122559,541.253357 
	C1138.579590,529.023499 1132.621094,524.184692 1119.497559,524.987366 
M895.840271,414.498596 
	C895.840271,419.922943 895.840271,425.347290 895.840271,430.703583 
	C898.902832,430.703583 901.306030,430.703583 903.999878,430.703583 
	C903.999878,422.269287 903.832581,414.130127 904.079163,406.003510 
	C904.183350,402.568695 904.758240,399.028320 905.832153,395.770966 
	C907.432373,390.917236 911.529907,388.792572 916.872986,389.183380 
	C921.936401,389.553772 924.920471,392.266357 925.481384,397.218750 
	C925.928894,401.170319 925.944275,405.180573 925.984131,409.166443 
	C926.056580,416.413544 926.004761,423.661926 926.004761,430.652313 
	C929.158630,430.652313 931.573975,430.652313 934.016724,430.652313 
	C934.016724,419.485504 934.338318,408.660461 933.929871,397.863068 
	C933.485718,386.120941 925.983276,379.961914 914.707214,382.113586 
	C911.372803,382.749878 908.441528,385.483063 905.312073,387.231293 
	C904.971741,387.421387 904.541870,387.451172 904.101929,387.569153 
	C903.990479,385.944336 903.893921,384.537354 903.807373,383.276611 
	C900.917053,383.276611 898.504944,383.276611 895.840271,383.276611 
	C895.840271,393.560211 895.840271,403.529541 895.840271,414.498596 
M777.629456,575.049622 
	C786.439880,573.391785 791.334351,569.633240 792.013367,561.000916 
	C792.917847,549.501465 792.236694,537.877258 792.236694,526.215942 
	C790.032654,526.215942 787.627502,526.215942 784.840271,526.215942 
	C784.840271,530.087524 784.898071,533.715271 784.828064,537.340576 
	C784.690125,544.482849 784.879456,551.662781 784.184448,558.753723 
	C783.548035,565.246765 780.073303,567.832947 773.855225,567.798889 
	C767.832092,567.765930 764.759766,565.276917 763.618286,559.140015 
	C763.166321,556.710266 763.101074,554.185364 763.082947,551.702209 
	C763.021423,543.260132 763.059387,534.817261 763.059387,526.170837 
	C760.203552,526.170837 757.800537,526.170837 754.945862,526.170837 
	C754.945862,535.645142 754.884399,544.919495 754.959778,554.192688 
	C755.083679,569.432739 761.633667,575.658325 777.629456,575.049622 
M842.121643,543.054688 
	C844.805420,545.406250 847.298035,548.040283 850.230408,550.024414 
	C852.807129,551.767944 855.987915,552.591797 858.700378,554.168457 
	C862.229736,556.219849 864.027954,559.253601 862.141113,563.375427 
	C860.332947,567.325623 856.741089,568.772644 853.060059,567.343933 
	C849.922974,566.126343 847.390259,563.351379 843.881592,560.737488 
	C842.707825,561.244873 840.480347,562.207642 838.264526,563.165344 
	C841.899902,572.487366 849.679749,576.821716 858.924133,574.928040 
	C865.039001,573.675415 870.113525,568.435120 871.005310,562.452209 
	C872.033386,555.554932 869.593201,550.739502 863.144897,547.292480 
	C861.105164,546.202087 858.660706,545.754089 856.822388,544.428345 
	C854.034912,542.418030 851.438660,540.044983 849.247864,537.419861 
	C848.950989,537.064270 851.511230,532.971985 852.678650,533.006042 
	C855.874268,533.099487 859.032593,534.471497 862.205750,535.337219 
	C862.111267,535.839844 862.016846,536.342529 861.922363,536.845154 
	C863.955444,535.773376 865.988464,534.701660 868.009644,533.636169 
	C864.398010,525.998901 857.577942,522.928955 850.343628,525.485046 
	C843.280518,527.980652 840.052063,534.421509 842.121643,543.054688 
M1018.583069,556.497314 
	C1018.583069,562.259888 1018.583069,568.022522 1018.583069,573.709961 
	C1021.671570,573.709961 1024.092041,573.709961 1026.609009,573.709961 
	C1026.609009,545.661987 1026.609009,517.918884 1026.609009,490.103699 
	C1023.806702,490.103699 1021.261353,490.103699 1018.583069,490.103699 
	C1018.583069,512.172668 1018.583069,533.835510 1018.583069,556.497314 
M818.226685,535.881836 
	C821.414612,531.336487 825.540344,531.526245 830.080383,533.975220 
	C831.339478,531.476440 832.432373,529.307434 834.065857,526.065613 
	C830.260864,525.600708 827.098755,524.485718 824.290771,525.070801 
	C821.326416,525.688354 818.699951,527.927124 815.967834,529.434509 
	C815.296143,523.208801 810.698853,526.941223 807.519775,525.966675 
	C807.519775,542.126404 807.519775,557.868774 807.519775,573.812622 
	C810.219788,573.812622 812.657166,573.812622 815.620544,573.812622 
	C815.620544,565.856628 815.363159,558.049316 815.718140,550.269958 
	C815.926941,545.695068 817.108521,541.164490 818.226685,535.881836 
M734.030701,426.357758 
	C734.238953,417.230530 733.850830,408.039185 734.823792,398.994202 
	C735.789185,390.018982 740.126282,387.830048 748.669983,390.700562 
	C749.776978,388.564117 750.896484,386.403503 752.126221,384.030060 
	C745.056335,379.823273 739.371460,381.509125 734.296875,387.691559 
	C734.082642,385.737213 733.943420,384.467468 733.802795,383.184357 
	C731.195557,383.184357 728.764221,383.184357 726.288940,383.184357 
	C726.288940,399.242310 726.288940,415.073120 726.288940,431.501404 
	C729.050720,429.561432 734.352600,434.228668 734.030701,426.357758 
z"/>
<path fill="#C0BC7F" opacity="1.000000" stroke="none" 
	d="
M1107.025635,793.674561 
	C1106.541016,786.686707 1106.474609,779.796204 1106.315430,772.443176 
	C1106.355713,769.346436 1107.980225,768.725464 1110.634277,768.923584 
	C1142.274292,768.910034 1173.540161,768.962463 1204.806152,769.014160 
	C1206.784424,769.017456 1208.762695,769.014587 1211.362793,769.014587 
	C1211.362793,777.146118 1211.362793,784.918030 1211.355835,793.130127 
	C1200.531494,793.661133 1189.714111,793.819641 1178.896729,793.829163 
	C1155.079102,793.850037 1131.261475,793.795593 1107.025635,793.674561 
z"/>
<path fill="#184F2C" opacity="1.000000" stroke="none" 
	d="
M1219.169556,270.283356 
	C1231.146362,269.994293 1243.294922,270.162689 1255.434326,269.902130 
	C1259.894409,269.806427 1261.134644,271.367737 1261.081909,275.671936 
	C1260.875488,292.472778 1260.989746,309.277527 1260.971802,326.551727 
	C1258.681641,324.071228 1256.341309,321.166168 1254.138062,318.160706 
	C1242.518921,302.311340 1230.934326,286.436707 1219.169556,270.283356 
z"/>
<path fill="#CCD6DD" opacity="1.000000" stroke="none" 
	d="
M1099.928345,772.608887 
	C1093.514526,779.059937 1087.243286,785.201965 1080.817139,791.654297 
	C1080.255981,792.030518 1079.849854,792.096436 1078.731445,792.166504 
	C1075.391846,792.266541 1072.764404,792.362366 1070.137085,792.458252 
	C1069.004150,792.464905 1067.871094,792.471619 1065.898682,792.461609 
	C1062.364014,792.287476 1059.668945,792.130127 1056.973877,791.972778 
	C1069.629883,779.276367 1082.244751,766.538452 1094.973389,753.915344 
	C1097.832886,751.079468 1103.096680,751.105042 1105.889038,753.541199 
	C1109.265747,756.487244 1110.013794,761.080200 1107.240112,764.711060 
	C1105.139160,767.461304 1102.481201,769.785767 1099.928345,772.608887 
z"/>
<path fill="#D16C79" opacity="1.000000" stroke="none" 
	d="
M1056.509766,792.037354 
	C1059.668945,792.130127 1062.364014,792.287476 1065.486816,792.576294 
	C1057.487061,796.790405 1049.047607,800.848572 1040.641479,804.974792 
	C1038.761719,805.897522 1036.999146,807.059143 1035.060181,808.421387 
	C1032.945435,808.807190 1030.952393,808.956421 1028.960571,808.943726 
	C1023.038574,808.905884 1019.095520,805.648560 1018.996399,800.789551 
	C1018.895447,795.836914 1022.489929,792.456177 1028.619263,792.295105 
	C1036.262085,792.094116 1043.914062,792.244141 1051.562012,792.226318 
	C1053.056763,792.222839 1054.551147,792.145386 1056.509766,792.037354 
z"/>
<path fill="#D16C79" opacity="1.000000" stroke="none" 
	d="
M1070.471191,792.605347 
	C1072.764404,792.362366 1075.391846,792.266541 1078.442383,792.282410 
	C1076.178955,792.513550 1073.492065,792.632996 1070.471191,792.605347 
z"/>
<path fill="#F8FAF9" opacity="1.000000" stroke="none" 
	d="
M668.160645,402.999939 
	C668.160645,386.552490 668.160645,370.605042 668.160645,353.213135 
	C676.857178,354.065979 685.351624,354.019318 693.404968,355.880890 
	C707.961365,359.245575 711.496643,379.730530 699.892822,389.718597 
	C709.782104,393.974976 714.705688,401.458282 713.621582,412.152039 
	C712.522217,422.997650 704.297913,429.865082 691.228516,430.779449 
	C683.796082,431.299438 676.297485,430.873444 668.160645,430.873444 
	C668.160645,421.668365 668.160645,412.584167 668.160645,402.999939 
M690.615112,395.615326 
	C686.201904,395.422638 681.788696,395.229919 677.237854,395.031189 
	C677.237854,404.696991 677.237854,413.709778 677.237854,423.432556 
	C683.328857,422.930878 689.158203,422.950806 694.773010,421.863007 
	C701.962952,420.470123 705.333496,415.461975 705.070679,408.197296 
	C704.815613,401.148071 700.569458,397.265808 690.615112,395.615326 
M689.159302,387.051208 
	C696.664185,384.507568 699.661194,378.714630 697.686523,370.568665 
	C695.948242,363.397766 689.477722,360.793335 677.220825,362.413177 
	C677.220825,370.778503 677.220825,379.162323 677.220825,388.124390 
	C681.143127,387.789795 684.740723,387.482880 689.159302,387.051208 
z"/>
<path fill="#CCD6DD" opacity="1.000000" stroke="none" 
	d="
M929.916504,699.016907 
	C929.576782,706.090027 929.237061,713.163208 928.261169,720.616455 
	C906.802063,721.033997 885.978455,721.148865 865.157288,720.974548 
	C863.314514,720.959106 861.487427,719.057190 859.730469,717.569641 
	C859.880554,713.293884 859.813599,709.470825 860.062683,705.668457 
	C860.346924,701.331360 862.109802,698.807678 867.212280,698.864807 
	C888.111633,699.098694 909.014771,698.995789 929.916504,699.016907 
z"/>
<path fill="#F8FAF9" opacity="1.000000" stroke="none" 
	d="
M655.833862,575.032410 
	C634.724487,571.442749 620.780701,556.089966 620.310425,536.357422 
	C619.867249,517.762268 633.081116,500.974854 651.850830,496.605896 
	C659.992249,494.710876 668.029053,495.429474 675.800720,498.699646 
	C683.948181,502.127991 684.607544,503.315399 683.094482,512.545654 
	C661.801331,500.228607 647.840759,501.066956 636.191345,515.362305 
	C626.236572,527.577942 626.628601,544.511353 637.144592,556.543640 
	C648.894897,569.988342 662.945374,570.539551 683.015442,558.343323 
	C684.764648,567.246887 684.233459,569.204041 675.709351,571.936279 
	C669.526611,573.918152 662.761780,574.084045 655.833862,575.032410 
z"/>
<path fill="#F8FAF9" opacity="1.000000" stroke="none" 
	d="
M1004.583740,354.515381 
	C1014.041870,351.788544 1023.002258,351.993164 1031.813843,355.602600 
	C1040.213379,359.043213 1040.233887,359.056366 1039.715454,370.270782 
	C1032.086670,364.049255 1023.981140,359.946747 1014.185669,360.739258 
	C1004.219849,361.545532 996.570007,366.355530 990.969849,374.430573 
	C982.154541,387.141754 983.619263,403.451050 994.406372,414.690277 
	C1006.257141,427.037811 1020.011597,427.222534 1039.276978,415.292877 
	C1041.012451,424.245148 1040.331421,425.569214 1032.187744,429.076447 
	C1011.789612,437.861359 987.467712,427.735687 979.263489,407.043274 
	C970.934631,386.036560 982.022400,362.772400 1004.583740,354.515381 
z"/>
<path fill="#F8FAF9" opacity="1.000000" stroke="none" 
	d="
M1058.556641,383.328125 
	C1053.111084,374.876404 1053.759766,365.653046 1059.986938,359.246429 
	C1067.072510,351.956696 1079.526978,350.229126 1088.003906,355.816193 
	C1091.206909,357.927307 1093.721558,361.083252 1096.940918,364.133453 
	C1093.985962,366.020569 1091.907837,367.347778 1089.507202,368.880890 
	C1086.031250,362.953979 1081.162476,359.856201 1074.198486,360.819763 
	C1069.084595,361.527344 1065.056763,364.916473 1063.889404,369.614777 
	C1062.616699,374.737549 1064.684692,378.440460 1068.897583,381.022278 
	C1071.858276,382.836700 1075.046387,384.287567 1078.168213,385.829285 
	C1081.292725,387.372345 1084.572632,388.631470 1087.589233,390.356384 
	C1096.772705,395.607513 1100.548584,403.339050 1098.765137,412.753540 
	C1096.882812,422.690460 1088.661255,430.668182 1078.936035,431.994476 
	C1065.046509,433.888763 1054.552124,426.722809 1050.993408,412.412292 
	C1053.546997,411.674316 1056.133667,410.926788 1058.915527,410.122864 
	C1059.665894,412.068451 1060.205200,413.794098 1060.976196,415.409058 
	C1064.453247,422.691895 1072.259399,426.036316 1079.804932,423.544373 
	C1087.139648,421.122070 1091.785156,414.229523 1089.957397,406.904938 
	C1089.155151,403.689301 1086.659302,400.407043 1084.028442,398.265900 
	C1081.021729,395.818665 1076.892090,394.807983 1073.460815,392.811554 
	C1068.475342,389.910919 1063.678345,386.686615 1058.556641,383.328125 
z"/>
<path fill="#F8FAF9" opacity="1.000000" stroke="none" 
	d="
M882.154785,382.951874 
	C884.024048,383.019135 885.460693,383.086487 887.540466,383.184021 
	C879.682068,400.158386 872.040100,416.665283 863.862671,434.328705 
	C858.784668,422.190369 854.134094,411.073883 849.005676,398.815063 
	C843.914368,410.982910 839.251038,422.127991 834.150085,434.318817 
	C826.122253,416.850067 818.531677,400.332825 810.716858,383.327576 
	C813.999634,383.327576 816.849060,383.327576 820.008789,383.327576 
	C824.448181,393.421051 828.984375,403.734619 834.053650,415.260132 
	C839.155396,403.013153 843.848938,391.746124 849.001831,379.376404 
	C854.133423,391.637268 858.827026,402.851685 863.997009,415.204285 
	C866.132141,410.477142 867.868225,406.689331 869.557251,402.880646 
	C872.047852,397.264435 874.637756,391.686310 876.913513,385.983490 
	C877.876770,383.569580 879.214539,382.533508 882.154785,382.951874 
z"/>
<path fill="#FCFDFC" opacity="1.000000" stroke="none" 
	d="
M1002.322632,503.700806 
	C1009.347595,512.805908 1009.832031,523.646912 1003.826233,531.669922 
	C996.843140,540.998718 986.497681,540.130798 976.200073,540.263489 
	C976.200073,551.567322 976.200073,562.487671 976.200073,573.704407 
	C973.223511,573.704407 970.643066,573.704407 967.787842,573.704407 
	C967.787842,548.301025 967.787842,522.883179 967.787842,496.778320 
	C979.578308,497.972412 992.018005,493.884399 1002.322632,503.700806 
M983.300293,504.987061 
	C981.027588,504.987061 978.754883,504.987061 976.404785,504.987061 
	C976.404785,514.282959 976.404785,523.134155 976.404785,531.977539 
	C979.895508,531.977539 983.044617,532.055603 986.186523,531.940063 
	C987.489197,531.892212 988.798401,531.506287 990.067261,531.143372 
	C996.085388,529.421997 998.877258,525.928101 999.267090,519.719482 
	C999.870850,510.106506 995.758118,506.088989 983.300293,504.987061 
z"/>
<path fill="#F8FAF9" opacity="1.000000" stroke="none" 
	d="
M889.872742,527.754028 
	C898.784363,523.354492 907.303528,523.249512 915.186096,528.951965 
	C922.716370,534.399414 924.691528,542.425781 924.661194,551.739502 
	C911.911499,551.739502 899.652100,551.739502 887.420715,551.739502 
	C887.110535,558.793823 890.931274,564.605164 897.004822,566.795105 
	C904.462036,569.483948 910.357056,567.024292 917.469727,558.070801 
	C919.529358,559.214539 921.641724,560.387512 923.732178,561.548340 
	C919.546326,571.329712 909.965942,576.345520 898.316772,575.041687 
	C888.928711,573.990967 880.739075,566.478699 879.148682,556.633240 
	C877.316345,545.289490 879.279541,535.032410 889.872742,527.754028 
M912.879395,544.820862 
	C913.783447,544.758728 914.687439,544.696533 915.593079,544.634277 
	C914.793091,536.238403 906.538818,531.620117 900.816406,532.217346 
	C894.042603,532.924316 888.422852,538.317566 888.105286,544.821594 
	C896.076782,544.821594 904.035706,544.821594 912.879395,544.820862 
z"/>
<path fill="#F8FAF9" opacity="1.000000" stroke="none" 
	d="
M1038.025024,547.289185 
	C1040.547607,531.661987 1050.148560,523.133362 1063.686401,525.050293 
	C1068.350464,525.710693 1072.701172,528.584534 1077.413696,530.537903 
	C1077.548462,529.729980 1077.825562,528.067810 1078.140503,526.178955 
	C1080.543335,526.178955 1082.970093,526.178955 1085.677734,526.178955 
	C1085.677734,541.976440 1085.677734,557.711060 1085.677734,573.730835 
	C1083.210083,573.730835 1080.789307,573.730835 1078.100220,573.730835 
	C1077.915039,572.231873 1077.718872,570.643555 1077.469604,568.625366 
	C1076.760132,568.930603 1076.158203,569.029358 1075.782959,569.374695 
	C1068.612915,575.973206 1060.306152,577.117126 1051.717651,573.286072 
	C1042.669189,569.249939 1038.669312,561.397034 1038.001465,551.731873 
	C1037.909912,550.406677 1037.998291,549.069153 1038.025024,547.289185 
M1069.995972,534.213135 
	C1066.308350,533.652649 1062.509155,532.247620 1058.957642,532.716980 
	C1052.624390,533.553772 1048.759644,538.106079 1047.113159,544.093018 
	C1045.139648,551.269165 1046.459106,557.956604 1051.754395,563.457703 
	C1055.350342,567.193298 1059.887939,568.429199 1064.966064,567.507263 
	C1072.010376,566.228333 1076.056519,561.710510 1077.464111,554.973816 
	C1079.134277,546.981140 1077.818481,539.765320 1069.995972,534.213135 
z"/>
<path fill="#F8FAF9" opacity="1.000000" stroke="none" 
	d="
M791.973633,383.917175 
	C803.714294,390.560883 808.614075,400.804382 806.055603,412.752930 
	C803.838684,423.106110 794.885803,431.168427 784.592468,432.080994 
	C773.260010,433.085693 763.768127,428.077881 758.985107,418.570892 
	C754.195740,409.051392 755.721375,397.715607 762.856812,389.803650 
	C769.992859,381.890961 780.632568,379.662445 791.973633,383.917175 
M778.260071,389.473480 
	C767.508850,392.463715 762.126221,401.962921 765.179626,412.557739 
	C767.788513,421.610168 777.193176,426.670288 786.475281,424.015839 
	C794.906738,421.604645 799.746643,413.106445 798.145630,403.524414 
	C796.592957,394.231781 789.453796,388.912811 778.260071,389.473480 
z"/>
<path fill="#F8FAF9" opacity="1.000000" stroke="none" 
	d="
M711.106750,574.056885 
	C699.140625,569.031128 693.489136,560.640259 693.851929,548.917664 
	C694.169434,538.663269 700.811279,529.500366 710.402527,526.085144 
	C720.626038,522.444763 732.010315,525.713013 738.734619,534.218994 
	C745.502136,542.779602 746.027893,554.962585 740.024597,564.110779 
	C733.937439,573.386780 722.992004,577.236450 711.106750,574.056885 
M707.887512,536.314209 
	C698.330933,544.105408 700.102539,562.502563 713.623535,566.885986 
	C721.437073,569.419006 729.493652,566.384644 733.509155,559.548279 
	C737.840759,552.173706 736.499207,542.252258 730.410095,536.629700 
	C724.329285,531.014832 716.070496,530.721680 707.887512,536.314209 
z"/>
<path fill="#56A9E5" opacity="1.000000" stroke="none" 
	d="
M919.962036,655.940430 
	C920.154663,657.677063 920.347351,659.413696 919.901367,661.446106 
	C917.115356,661.755859 914.967896,661.772217 912.820496,661.783386 
	C898.626770,661.857178 884.433044,661.929871 869.753479,661.913086 
	C862.330383,661.749634 855.393066,661.676086 848.203491,661.358521 
	C841.896362,654.926331 841.336121,647.504517 843.067566,639.544495 
	C843.981750,635.341614 845.569641,631.680481 850.051819,630.149475 
	C872.143005,630.142822 894.234192,630.109558 916.325256,630.149170 
	C921.526245,630.158508 922.380127,631.422363 920.015015,636.036743 
	C899.304504,636.143311 879.164001,636.072266 859.023499,636.024048 
	C850.655090,636.004028 848.112183,639.266235 849.728577,648.322144 
	C850.683350,655.433594 851.283081,655.997803 857.797241,655.995117 
	C878.518860,655.986572 899.240417,655.960022 919.962036,655.940430 
z"/>
<path fill="#9369C7" opacity="1.000000" stroke="none" 
	d="
M859.653076,718.031433 
	C861.487427,719.057190 863.314514,720.959106 865.157288,720.974548 
	C885.978455,721.148865 906.802063,721.033997 928.055176,720.993408 
	C931.120178,725.311951 930.335999,726.970886 925.338745,726.976929 
	C902.940308,727.004150 880.541626,726.932617 857.471802,726.578125 
	C850.061646,718.823730 848.810669,697.958069 854.732788,690.192627 
	C855.601440,689.053650 856.985596,688.307739 858.579224,687.307617 
	C862.761292,687.151123 866.495361,687.066956 870.677368,687.068665 
	C873.271057,687.197266 875.416565,687.273010 877.562256,687.277588 
	C894.585632,687.314270 911.608948,687.337402 928.632324,687.364685 
	C928.865845,688.855408 929.099365,690.346191 928.562744,691.979919 
	C907.490417,692.112122 887.188171,692.103882 866.885986,692.087830 
	C863.836121,692.085388 860.415955,691.895874 859.448975,695.586182 
	C857.497864,703.033081 856.721191,710.578308 859.653076,718.031433 
z"/>
<path fill="#CCD6DD" opacity="1.000000" stroke="none" 
	d="
M920.129150,655.593994 
	C899.240417,655.960022 878.518860,655.986572 857.797241,655.995117 
	C851.283081,655.997803 850.683350,655.433594 849.823608,647.956055 
	C850.487122,643.493652 852.459961,641.868774 856.376709,641.898132 
	C878.153870,642.061096 899.932434,642.040405 921.710510,642.082581 
	C921.239136,646.470886 920.767700,650.859253 920.129150,655.593994 
z"/>
<path fill="#FCFDFC" opacity="1.000000" stroke="none" 
	d="
M1119.887573,524.944824 
	C1132.621094,524.184692 1138.579590,529.023499 1139.122559,541.253357 
	C1139.600830,552.029724 1139.222534,562.844116 1139.222534,573.803650 
	C1136.569946,573.803650 1134.134277,573.803650 1131.184326,573.803650 
	C1131.184326,565.824524 1131.196655,558.039001 1131.177490,550.253479 
	C1131.170898,547.589172 1131.197632,544.917175 1131.013428,542.262268 
	C1130.569336,535.863525 1128.069824,532.927551 1122.676392,532.244202 
	C1116.647095,531.480225 1111.948364,534.176941 1110.572021,540.112488 
	C1109.532471,544.596191 1109.345459,549.322815 1109.188965,553.955139 
	C1108.970337,560.424072 1109.133667,566.905945 1109.133667,573.693359 
	C1106.476807,573.693359 1104.065186,573.693359 1101.316772,573.693359 
	C1101.316772,558.086487 1101.316772,542.350708 1101.316772,526.286621 
	C1103.623413,526.286621 1106.030029,526.286621 1108.893921,526.286621 
	C1109.010010,527.517456 1109.142456,528.922119 1109.268555,530.260376 
	C1112.664307,528.509949 1116.080933,526.748657 1119.887573,524.944824 
z"/>
<path fill="#FCFDFC" opacity="1.000000" stroke="none" 
	d="
M895.840271,413.998718 
	C895.840271,403.529541 895.840271,393.560211 895.840271,383.276611 
	C898.504944,383.276611 900.917053,383.276611 903.807373,383.276611 
	C903.893921,384.537354 903.990479,385.944336 904.101929,387.569153 
	C904.541870,387.451172 904.971741,387.421387 905.312073,387.231293 
	C908.441528,385.483063 911.372803,382.749878 914.707214,382.113586 
	C925.983276,379.961914 933.485718,386.120941 933.929871,397.863068 
	C934.338318,408.660461 934.016724,419.485504 934.016724,430.652313 
	C931.573975,430.652313 929.158630,430.652313 926.004761,430.652313 
	C926.004761,423.661926 926.056580,416.413544 925.984131,409.166443 
	C925.944275,405.180573 925.928894,401.170319 925.481384,397.218750 
	C924.920471,392.266357 921.936401,389.553772 916.872986,389.183380 
	C911.529907,388.792572 907.432373,390.917236 905.832153,395.770966 
	C904.758240,399.028320 904.183350,402.568695 904.079163,406.003510 
	C903.832581,414.130127 903.999878,422.269287 903.999878,430.703583 
	C901.306030,430.703583 898.902832,430.703583 895.840271,430.703583 
	C895.840271,425.347290 895.840271,419.922943 895.840271,413.998718 
z"/>
<path fill="#FCFDFC" opacity="1.000000" stroke="none" 
	d="
M777.228455,575.080444 
	C761.633667,575.658325 755.083679,569.432739 754.959778,554.192688 
	C754.884399,544.919495 754.945862,535.645142 754.945862,526.170837 
	C757.800537,526.170837 760.203552,526.170837 763.059387,526.170837 
	C763.059387,534.817261 763.021423,543.260132 763.082947,551.702209 
	C763.101074,554.185364 763.166321,556.710266 763.618286,559.140015 
	C764.759766,565.276917 767.832092,567.765930 773.855225,567.798889 
	C780.073303,567.832947 783.548035,565.246765 784.184448,558.753723 
	C784.879456,551.662781 784.690125,544.482849 784.828064,537.340576 
	C784.898071,533.715271 784.840271,530.087524 784.840271,526.215942 
	C787.627502,526.215942 790.032654,526.215942 792.236694,526.215942 
	C792.236694,537.877258 792.917847,549.501465 792.013367,561.000916 
	C791.334351,569.633240 786.439880,573.391785 777.228455,575.080444 
z"/>
<path fill="#F8FAF9" opacity="1.000000" stroke="none" 
	d="
M842.016602,542.681030 
	C840.052063,534.421509 843.280518,527.980652 850.343628,525.485046 
	C857.577942,522.928955 864.398010,525.998901 868.009644,533.636169 
	C865.988464,534.701660 863.955444,535.773376 861.922363,536.845154 
	C862.016846,536.342529 862.111267,535.839844 862.205750,535.337219 
	C859.032593,534.471497 855.874268,533.099487 852.678650,533.006042 
	C851.511230,532.971985 848.950989,537.064270 849.247864,537.419861 
	C851.438660,540.044983 854.034912,542.418030 856.822388,544.428345 
	C858.660706,545.754089 861.105164,546.202087 863.144897,547.292480 
	C869.593201,550.739502 872.033386,555.554932 871.005310,562.452209 
	C870.113525,568.435120 865.039001,573.675415 858.924133,574.928040 
	C849.679749,576.821716 841.899902,572.487366 838.264526,563.165344 
	C840.480347,562.207642 842.707825,561.244873 843.881592,560.737488 
	C847.390259,563.351379 849.922974,566.126343 853.060059,567.343933 
	C856.741089,568.772644 860.332947,567.325623 862.141113,563.375427 
	C864.027954,559.253601 862.229736,556.219849 858.700378,554.168457 
	C855.987915,552.591797 852.807129,551.767944 850.230408,550.024414 
	C847.298035,548.040283 844.805420,545.406250 842.016602,542.681030 
z"/>
<path fill="#F8FAF9" opacity="1.000000" stroke="none" 
	d="
M1018.583069,555.997803 
	C1018.583069,533.835510 1018.583069,512.172668 1018.583069,490.103699 
	C1021.261353,490.103699 1023.806702,490.103699 1026.609009,490.103699 
	C1026.609009,517.918884 1026.609009,545.661987 1026.609009,573.709961 
	C1024.092041,573.709961 1021.671570,573.709961 1018.583069,573.709961 
	C1018.583069,568.022522 1018.583069,562.259888 1018.583069,555.997803 
z"/>
<path fill="#FEAC34" opacity="1.000000" stroke="none" 
	d="
M929.074341,687.288330 
	C911.608948,687.337402 894.585632,687.314270 877.562256,687.277588 
	C875.416565,687.273010 873.271057,687.197266 870.454041,686.789062 
	C863.111938,678.573303 863.266846,670.291748 870.239319,662.002930 
	C884.433044,661.929871 898.626770,661.857178 912.820496,661.783386 
	C914.967896,661.772217 917.115356,661.755859 919.637817,661.680908 
	C923.113770,661.696655 926.215332,661.754639 929.315491,661.855286 
	C932.504517,661.958740 934.046265,663.157532 931.569519,666.747620 
	C914.085022,667.033936 897.300537,667.029358 880.516052,667.041260 
	C873.484985,667.046204 871.948975,668.739868 872.308716,676.387390 
	C873.110168,680.901917 875.969666,681.655945 879.693848,681.639648 
	C896.758240,681.565186 913.823303,681.640503 930.888123,681.661987 
	C935.018311,684.645752 933.480286,686.228638 929.074341,687.288330 
z"/>
<path fill="#F3900C" opacity="1.000000" stroke="none" 
	d="
M869.753479,661.913086 
	C863.266846,670.291748 863.111938,678.573303 870.005981,686.703247 
	C866.495361,687.066956 862.761292,687.151123 858.105713,687.235962 
	C853.232483,687.134277 849.280884,687.031921 845.329285,686.929565 
	C837.782959,679.736877 837.556274,668.818054 845.445312,662.334473 
	C846.862427,661.891235 847.659119,661.746948 848.455811,661.602600 
	C855.393066,661.676086 862.330383,661.749634 869.753479,661.913086 
z"/>
<path fill="#F8FAF9" opacity="1.000000" stroke="none" 
	d="
M818.039551,536.247925 
	C817.108521,541.164490 815.926941,545.695068 815.718140,550.269958 
	C815.363159,558.049316 815.620544,565.856628 815.620544,573.812622 
	C812.657166,573.812622 810.219788,573.812622 807.519775,573.812622 
	C807.519775,557.868774 807.519775,542.126404 807.519775,525.966675 
	C810.698853,526.941223 815.296143,523.208801 815.967834,529.434509 
	C818.699951,527.927124 821.326416,525.688354 824.290771,525.070801 
	C827.098755,524.485718 830.260864,525.600708 834.065857,526.065613 
	C832.432373,529.307434 831.339478,531.476440 830.080383,533.975220 
	C825.540344,531.526245 821.414612,531.336487 818.039551,536.247925 
z"/>
<path fill="#563887" opacity="1.000000" stroke="none" 
	d="
M844.991516,687.072266 
	C849.280884,687.031921 853.232483,687.134277 857.657654,687.308228 
	C856.985596,688.307739 855.601440,689.053650 854.732788,690.192627 
	C848.810669,697.958069 850.061646,718.823730 857.020813,726.526550 
	C854.579712,726.863220 851.918518,726.986389 849.257019,726.991943 
	C842.353699,727.006409 839.181396,725.387207 838.435120,718.729187 
	C837.543396,710.773926 837.886841,702.571167 838.750305,694.589783 
	C839.036011,691.949524 842.592651,689.663147 844.991516,687.072266 
z"/>
<path fill="#CCD6DD" opacity="1.000000" stroke="none" 
	d="
M931.219971,681.398071 
	C913.823303,681.640503 896.758240,681.565186 879.693848,681.639648 
	C875.969666,681.655945 873.110168,680.901917 872.573242,676.153442 
	C875.199951,674.714111 877.583984,673.148254 879.986145,673.119873 
	C897.637634,672.911499 915.292786,673.010681 932.946777,673.012939 
	C932.481750,675.719971 932.016785,678.427063 931.219971,681.398071 
z"/>
<path fill="#9CA8B9" opacity="1.000000" stroke="none" 
	d="
M859.730469,717.569641 
	C856.721191,710.578308 857.497864,703.033081 859.448975,695.586182 
	C860.415955,691.895874 863.836121,692.085388 866.885986,692.087830 
	C887.188171,692.103882 907.490417,692.112122 928.226196,692.149902 
	C929.109680,694.192261 929.559631,696.207703 929.963013,698.619995 
	C909.014771,698.995789 888.111633,699.098694 867.212280,698.864807 
	C862.109802,698.807678 860.346924,701.331360 860.062683,705.668457 
	C859.813599,709.470825 859.880554,713.293884 859.730469,717.569641 
z"/>
<path fill="#FCFDFC" opacity="1.000000" stroke="none" 
	d="
M734.030640,426.839233 
	C734.352600,434.228668 729.050720,429.561432 726.288940,431.501404 
	C726.288940,415.073120 726.288940,399.242310 726.288940,383.184357 
	C728.764221,383.184357 731.195557,383.184357 733.802795,383.184357 
	C733.943420,384.467468 734.082642,385.737213 734.296875,387.691559 
	C739.371460,381.509125 745.056335,379.823273 752.126221,384.030060 
	C750.896484,386.403503 749.776978,388.564117 748.669983,390.700562 
	C740.126282,387.830048 735.789185,390.018982 734.823792,398.994202 
	C733.850830,408.039185 734.238953,417.230530 734.030640,426.839233 
z"/>
<path fill="#9CA8B9" opacity="1.000000" stroke="none" 
	d="
M921.785828,641.664551 
	C899.932434,642.040405 878.153870,642.061096 856.376709,641.898132 
	C852.459961,641.868774 850.487122,643.493652 849.789062,647.541260 
	C848.112183,639.266235 850.655090,636.004028 859.023499,636.024048 
	C879.164001,636.072266 899.304504,636.143311 919.769775,636.289795 
	C920.683411,637.998474 921.272278,639.622498 921.785828,641.664551 
z"/>
<path fill="#9CA8B9" opacity="1.000000" stroke="none" 
	d="
M933.010010,672.626587 
	C915.292786,673.010681 897.637634,672.911499 879.986145,673.119873 
	C877.583984,673.148254 875.199951,674.714111 872.543030,675.802002 
	C871.948975,668.739868 873.484985,667.046204 880.516052,667.041260 
	C897.300537,667.029358 914.085022,667.033936 931.320435,667.060913 
	C932.205261,668.806641 932.639282,670.523438 933.010010,672.626587 
z"/>
<path fill="#236797" opacity="1.000000" stroke="none" 
	d="
M848.203491,661.358521 
	C847.659119,661.746948 846.862427,661.891235 845.666260,662.060120 
	C838.642700,661.343384 835.915283,659.394775 834.694275,652.933411 
	C833.908081,648.772705 833.787659,644.287476 834.408691,640.102051 
	C835.601990,632.059326 838.836914,630.129456 849.608521,630.096924 
	C845.569641,631.680481 843.981750,635.341614 843.067566,639.544495 
	C841.336121,647.504517 841.896362,654.926331 848.203491,661.358521 
z"/>
<path fill="#236A3F" opacity="1.000000" stroke="none" 
	d="
M691.041626,395.687988 
	C700.569458,397.265808 704.815613,401.148071 705.070679,408.197296 
	C705.333496,415.461975 701.962952,420.470123 694.773010,421.863007 
	C689.158203,422.950806 683.328857,422.930878 677.237854,423.432556 
	C677.237854,413.709778 677.237854,404.696991 677.237854,395.031189 
	C681.788696,395.229919 686.201904,395.422638 691.041626,395.687988 
z"/>
<path fill="#236A3F" opacity="1.000000" stroke="none" 
	d="
M688.748779,387.113586 
	C684.740723,387.482880 681.143127,387.789795 677.220825,388.124390 
	C677.220825,379.162323 677.220825,370.778503 677.220825,362.413177 
	C689.477722,360.793335 695.948242,363.397766 697.686523,370.568665 
	C699.661194,378.714630 696.664185,384.507568 688.748779,387.113586 
z"/>
<path fill="#236A3F" opacity="1.000000" stroke="none" 
	d="
M983.753906,504.997620 
	C995.758118,506.088989 999.870850,510.106506 999.267090,519.719482 
	C998.877258,525.928101 996.085388,529.421997 990.067261,531.143372 
	C988.798401,531.506287 987.489197,531.892212 986.186523,531.940063 
	C983.044617,532.055603 979.895508,531.977539 976.404785,531.977539 
	C976.404785,523.134155 976.404785,514.282959 976.404785,504.987061 
	C978.754883,504.987061 981.027588,504.987061 983.753906,504.997620 
z"/>
<path fill="#236A3F" opacity="1.000000" stroke="none" 
	d="
M912.437012,544.821228 
	C904.035706,544.821594 896.076782,544.821594 888.105286,544.821594 
	C888.422852,538.317566 894.042603,532.924316 900.816406,532.217346 
	C906.538818,531.620117 914.793091,536.238403 915.593079,544.634277 
	C914.687439,544.696533 913.783447,544.758728 912.437012,544.821228 
z"/>
<path fill="#236A3F" opacity="1.000000" stroke="none" 
	d="
M1070.303711,534.434082 
	C1077.818481,539.765320 1079.134277,546.981140 1077.464111,554.973816 
	C1076.056519,561.710510 1072.010376,566.228333 1064.966064,567.507263 
	C1059.887939,568.429199 1055.350342,567.193298 1051.754395,563.457703 
	C1046.459106,557.956604 1045.139648,551.269165 1047.113159,544.093018 
	C1048.759644,538.106079 1052.624390,533.553772 1058.957642,532.716980 
	C1062.509155,532.247620 1066.308350,533.652649 1070.303711,534.434082 
z"/>
<path fill="#236A3F" opacity="1.000000" stroke="none" 
	d="
M778.656189,389.386322 
	C789.453796,388.912811 796.592957,394.231781 798.145630,403.524414 
	C799.746643,413.106445 794.906738,421.604645 786.475281,424.015839 
	C777.193176,426.670288 767.788513,421.610168 765.179626,412.557739 
	C762.126221,401.962921 767.508850,392.463715 778.656189,389.386322 
z"/>
<path fill="#236A3F" opacity="1.000000" stroke="none" 
	d="
M708.172913,536.082397 
	C716.070496,530.721680 724.329285,531.014832 730.410095,536.629700 
	C736.499207,542.252258 737.840759,552.173706 733.509155,559.548279 
	C729.493652,566.384644 721.437073,569.419006 713.623535,566.885986 
	C700.102539,562.502563 698.330933,544.105408 708.172913,536.082397 
z"/>
</svg>